<?xml version="1.0" encoding="UTF-8" standalone="no"?>
<svg
   xmlns:dc="http://purl.org/dc/elements/1.1/"
   xmlns:cc="http://creativecommons.org/ns#"
   xmlns:rdf="http://www.w3.org/1999/02/22-rdf-syntax-ns#"
   xmlns:svg="http://www.w3.org/2000/svg"
   xmlns="http://www.w3.org/2000/svg"
   xmlns:sodipodi="http://sodipodi.sourceforge.net/DTD/sodipodi-0.dtd"
   xmlns:inkscape="http://www.inkscape.org/namespaces/inkscape"
   inkscape:version="1.0beta2 (2b71d25, 2019-12-03)"
   sodipodi:docname="enki logo v2.svg"
   id="svg1227"
   version="1.1"
   viewBox="0 0 210 297"
   height="297mm"
   width="210mm">
  <defs
     id="defs1221" />
  <sodipodi:namedview
     inkscape:window-maximized="0"
     inkscape:window-y="26"
     inkscape:window-x="0"
     inkscape:window-height="874"
     inkscape:window-width="1440"
     inkscape:snap-global="false"
     showgrid="false"
     inkscape:document-rotation="0"
     inkscape:current-layer="layer1"
     inkscape:document-units="mm"
     inkscape:cy="509.38756"
     inkscape:cx="215.83617"
     inkscape:zoom="0.59747801"
     inkscape:pageshadow="2"
     inkscape:pageopacity="0.0"
     borderopacity="1.0"
     bordercolor="#666666"
     pagecolor="#ffffff"
     id="base" />
  <metadata
     id="metadata1224">
    <rdf:RDF>
      <cc:Work
         rdf:about="">
        <dc:format>image/svg+xml</dc:format>
        <dc:type
           rdf:resource="http://purl.org/dc/dcmitype/StillImage" />
        <dc:title></dc:title>
      </cc:Work>
    </rdf:RDF>
  </metadata>
  <g
     id="layer1"
     inkscape:groupmode="layer"
     inkscape:label="Laag 1">
    <path
       id="path2011"
       style="font-variation-settings:normal;opacity:1;vector-effect:none;fill:#aaffcc;fill-opacity:1;fill-rule:evenodd;stroke:#ffffff;stroke-width:0;stroke-linecap:round;stroke-linejoin:round;stroke-miterlimit:4;stroke-dasharray:none;stroke-dashoffset:0;stroke-opacity:0.995935;stop-color:#000000;stop-opacity:1"
       d="m 113.57969,115.80917 c -1.29764,5.78587 -0.48351,9.21897 -2.3651,11.80695 -1.88158,2.58799 -17.965255,6.66957 -17.329314,3.47167 1.655435,-1.65293 12.744794,-7.19076 13.770804,-15.23693"
       inkscape:connector-curvature="0"
       sodipodi:nodetypes="cscc" />
    <path
       sodipodi:nodetypes="cscc"
       inkscape:connector-curvature="0"
       d="m 111.3428,115.80916 c 1.27671,5.78588 0.47571,9.21898 2.32693,11.80696 1.85122,2.58799 17.67543,6.66957 17.04974,3.47167 -1.62872,-1.65293 -12.53918,-7.19076 -13.54863,-15.23694"
       style="font-variation-settings:normal;opacity:1;vector-effect:none;fill:#aaffcc;fill-opacity:1;fill-rule:evenodd;stroke:#ffffff;stroke-width:0;stroke-linecap:round;stroke-linejoin:round;stroke-miterlimit:4;stroke-dasharray:none;stroke-dashoffset:0;stroke-opacity:0.995935;stop-color:#000000;stop-opacity:1"
       id="path2013" />
    <path
       sodipodi:open="true"
       d="m 113.24271,110.45267 a 2.7062294,9.2243185 0 0 1 -1.35311,7.98849 2.7062294,9.2243185 0 0 1 -2.70623,0 2.7062294,9.2243185 0 0 1 -1.35312,-7.98849"
       sodipodi:arc-type="arc"
       sodipodi:end="3.1415927"
       sodipodi:start="0"
       sodipodi:ry="9.2243185"
       sodipodi:rx="2.7062294"
       sodipodi:cy="110.45267"
       sodipodi:cx="110.53648"
       sodipodi:type="arc"
       id="path1991"
       style="font-variation-settings:normal;opacity:1;vector-effect:none;fill:#008080;fill-opacity:1;fill-rule:evenodd;stroke:#ffffff;stroke-width:0.368783;stroke-linecap:round;stroke-linejoin:round;stroke-miterlimit:4;stroke-dasharray:none;stroke-dashoffset:0;stroke-opacity:0.995935;stop-color:#000000;stop-opacity:1" />
    <path
       sodipodi:open="true"
       d="m 110.61667,104.93706 a 2.7109659,8.2897043 0 0 1 -1.35548,7.17909 2.7109659,8.2897043 0 0 1 -2.71096,0 2.7109659,8.2897043 0 0 1 -1.35549,-7.17909"
       sodipodi:arc-type="arc"
       sodipodi:end="3.1415927"
       sodipodi:start="0"
       sodipodi:ry="8.2897043"
       sodipodi:rx="2.7109659"
       sodipodi:cy="104.93706"
       sodipodi:cx="107.90571"
       sodipodi:type="arc"
       id="path1985"
       style="font-variation-settings:normal;opacity:1;vector-effect:none;fill:#28976c;fill-opacity:1;fill-rule:evenodd;stroke:#ffffff;stroke-width:0.349908;stroke-linecap:round;stroke-linejoin:round;stroke-miterlimit:4;stroke-dasharray:none;stroke-dashoffset:0;stroke-opacity:0.995935;stop-color:#000000;stop-opacity:1" />
    <path
       style="font-variation-settings:normal;opacity:1;vector-effect:none;fill:#28976c;fill-opacity:1;fill-rule:evenodd;stroke:#ffffff;stroke-width:0.368783;stroke-linecap:round;stroke-linejoin:round;stroke-miterlimit:4;stroke-dasharray:none;stroke-dashoffset:0;stroke-opacity:0.995935;stop-color:#000000;stop-opacity:1"
       id="path1993"
       sodipodi:type="arc"
       sodipodi:cx="114.23978"
       sodipodi:cy="110.45267"
       sodipodi:rx="2.7062294"
       sodipodi:ry="9.2243185"
       sodipodi:start="0"
       sodipodi:end="3.1415927"
       sodipodi:arc-type="arc"
       d="m 116.94601,110.45267 a 2.7062294,9.2243185 0 0 1 -1.35312,7.98849 2.7062294,9.2243185 0 0 1 -2.70623,0 2.7062294,9.2243185 0 0 1 -1.35311,-7.98849"
       sodipodi:open="true" />
    <path
       style="font-variation-settings:normal;opacity:1;vector-effect:none;fill:#008080;fill-opacity:1;fill-rule:evenodd;stroke:#ffffff;stroke-width:0.349908;stroke-linecap:round;stroke-linejoin:round;stroke-miterlimit:4;stroke-dasharray:none;stroke-dashoffset:0;stroke-opacity:0.995935;stop-color:#000000;stop-opacity:1"
       id="path1987"
       sodipodi:type="arc"
       sodipodi:cx="111.90082"
       sodipodi:cy="105.41762"
       sodipodi:rx="2.7109659"
       sodipodi:ry="8.2897043"
       sodipodi:start="0"
       sodipodi:end="3.1415927"
       sodipodi:arc-type="arc"
       d="m 114.61178,105.41762 a 2.7109659,8.2897043 0 0 1 -1.35548,7.17909 2.7109659,8.2897043 0 0 1 -2.71097,0 2.7109659,8.2897043 0 0 1 -1.35548,-7.17909"
       sodipodi:open="true" />
    <path
       sodipodi:open="true"
       d="m 108.05111,99.453835 a 3.2479782,8.2536354 0 0 1 -1.62399,7.147855 3.2479782,8.2536354 0 0 1 -3.24798,0 3.2479782,8.2536354 0 0 1 -1.62399,-7.147856"
       sodipodi:arc-type="arc"
       sodipodi:end="3.1415927"
       sodipodi:start="0"
       sodipodi:ry="8.2536354"
       sodipodi:rx="3.2479782"
       sodipodi:cy="99.453835"
       sodipodi:cx="104.80313"
       sodipodi:type="arc"
       id="path1963"
       style="font-variation-settings:normal;opacity:1;vector-effect:none;fill:#008080;fill-opacity:1;fill-rule:evenodd;stroke:#ffffff;stroke-width:0.382165;stroke-linecap:round;stroke-linejoin:round;stroke-miterlimit:4;stroke-dasharray:none;stroke-dashoffset:0;stroke-opacity:0.995935;stop-color:#000000;stop-opacity:1" />
    <path
       sodipodi:open="true"
       d="m 118.32155,105.41762 a 2.7109659,8.2897043 0 0 1 -1.35548,7.17909 2.7109659,8.2897043 0 0 1 -2.71096,0 2.7109659,8.2897043 0 0 1 -1.35549,-7.17909"
       sodipodi:arc-type="arc"
       sodipodi:end="3.1415927"
       sodipodi:start="0"
       sodipodi:ry="8.2897043"
       sodipodi:rx="2.7109659"
       sodipodi:cy="105.41762"
       sodipodi:cx="115.61059"
       sodipodi:type="arc"
       id="path1989"
       style="font-variation-settings:normal;opacity:1;vector-effect:none;fill:#28976c;fill-opacity:1;fill-rule:evenodd;stroke:#ffffff;stroke-width:0.349908;stroke-linecap:round;stroke-linejoin:round;stroke-miterlimit:4;stroke-dasharray:none;stroke-dashoffset:0;stroke-opacity:0.995935;stop-color:#000000;stop-opacity:1" />
    <path
       style="font-variation-settings:normal;opacity:1;vector-effect:none;fill:#28976c;fill-opacity:1;fill-rule:evenodd;stroke:#ffffff;stroke-width:0.382165;stroke-linecap:round;stroke-linejoin:round;stroke-miterlimit:4;stroke-dasharray:none;stroke-dashoffset:0;stroke-opacity:0.995935;stop-color:#000000;stop-opacity:1"
       id="path1965"
       sodipodi:type="arc"
       sodipodi:cx="109.58965"
       sodipodi:cy="99.453835"
       sodipodi:rx="3.2479782"
       sodipodi:ry="8.2536354"
       sodipodi:start="0"
       sodipodi:end="3.1415927"
       sodipodi:arc-type="arc"
       d="m 112.83763,99.453835 a 3.2479782,8.2536354 0 0 1 -1.62399,7.147855 3.2479782,8.2536354 0 0 1 -3.24798,0 3.2479782,8.2536354 0 0 1 -1.62399,-7.147856"
       sodipodi:open="true" />
    <path
       sodipodi:open="true"
       d="m 117.6241,99.932289 a 3.2479782,8.2536354 0 0 1 -1.62399,7.147861 3.2479782,8.2536354 0 0 1 -3.24798,0 3.2479782,8.2536354 0 0 1 -1.62399,-7.147861"
       sodipodi:arc-type="arc"
       sodipodi:end="3.1415927"
       sodipodi:start="0"
       sodipodi:ry="8.2536354"
       sodipodi:rx="3.2479782"
       sodipodi:cy="99.932289"
       sodipodi:cx="114.37612"
       sodipodi:type="arc"
       id="path1971"
       style="font-variation-settings:normal;opacity:1;vector-effect:none;fill:#008080;fill-opacity:1;fill-rule:evenodd;stroke:#ffffff;stroke-width:0.382165;stroke-linecap:round;stroke-linejoin:round;stroke-miterlimit:4;stroke-dasharray:none;stroke-dashoffset:0;stroke-opacity:0.995935;stop-color:#000000;stop-opacity:1" />
    <path
       style="font-variation-settings:normal;opacity:1;vector-effect:none;fill:#008080;fill-opacity:1;fill-rule:evenodd;stroke:#ffffff;stroke-width:0.382165;stroke-linecap:round;stroke-linejoin:round;stroke-miterlimit:4;stroke-dasharray:none;stroke-dashoffset:0;stroke-opacity:0.995935;stop-color:#000000;stop-opacity:1"
       id="path1943"
       sodipodi:type="arc"
       sodipodi:cx="107.70923"
       sodipodi:cy="93.71225"
       sodipodi:rx="3.2479782"
       sodipodi:ry="8.2536354"
       sodipodi:start="0"
       sodipodi:end="3.1415927"
       sodipodi:arc-type="arc"
       d="m 110.95721,93.71225 a 3.2479782,8.2536354 0 0 1 -1.62399,7.14786 3.2479782,8.2536354 0 0 1 -3.24798,0 3.2479782,8.2536354 0 0 1 -1.62399,-7.147861"
       sodipodi:open="true" />
    <path
       style="font-variation-settings:normal;opacity:1;vector-effect:none;fill:#28976c;fill-opacity:1;fill-rule:evenodd;stroke:#ffffff;stroke-width:0.382165;stroke-linecap:round;stroke-linejoin:round;stroke-miterlimit:4;stroke-dasharray:none;stroke-dashoffset:0;stroke-opacity:0.995935;stop-color:#000000;stop-opacity:1"
       id="path1973"
       sodipodi:type="arc"
       sodipodi:cx="118.82073"
       sodipodi:cy="99.932289"
       sodipodi:rx="3.2479782"
       sodipodi:ry="8.2536354"
       sodipodi:start="0"
       sodipodi:end="3.1415927"
       sodipodi:arc-type="arc"
       d="m 122.06871,99.932289 a 3.2479782,8.2536354 0 0 1 -1.62399,7.147861 3.2479782,8.2536354 0 0 1 -3.24798,0 3.2479782,8.2536354 0 0 1 -1.62399,-7.147861"
       sodipodi:open="true" />
    <path
       sodipodi:open="true"
       d="m 105.65787,93.71225 a 3.2479782,8.2536354 0 0 1 -1.62399,7.14786 3.2479782,8.2536354 0 0 1 -3.24798,0 3.2479782,8.2536354 0 0 1 -1.623989,-7.147861"
       sodipodi:arc-type="arc"
       sodipodi:end="3.1415927"
       sodipodi:start="0"
       sodipodi:ry="8.2536354"
       sodipodi:rx="3.2479782"
       sodipodi:cy="93.71225"
       sodipodi:cx="102.40989"
       sodipodi:type="arc"
       id="path1945"
       style="font-variation-settings:normal;opacity:1;vector-effect:none;fill:#27966c;fill-opacity:0.88235295;fill-rule:evenodd;stroke:#ffffff;stroke-width:0.382165;stroke-linecap:round;stroke-linejoin:round;stroke-miterlimit:4;stroke-dasharray:none;stroke-dashoffset:0;stroke-opacity:0.995935;stop-color:#000000;stop-opacity:1" />
    <path
       sodipodi:open="true"
       d="m 124.97476,94.19072 a 3.2479782,8.2536354 0 0 1 -1.62399,7.14786 3.2479782,8.2536354 0 0 1 -3.24798,0 3.2479782,8.2536354 0 0 1 -1.62398,-7.147861"
       sodipodi:arc-type="arc"
       sodipodi:end="3.1415927"
       sodipodi:start="0"
       sodipodi:ry="8.2536354"
       sodipodi:rx="3.2479782"
       sodipodi:cy="94.19072"
       sodipodi:cx="121.72678"
       sodipodi:type="arc"
       id="path1955"
       style="font-variation-settings:normal;opacity:1;vector-effect:none;fill:#27966c;fill-opacity:0.88235295;fill-rule:evenodd;stroke:#ffffff;stroke-width:0.382165;stroke-linecap:round;stroke-linejoin:round;stroke-miterlimit:4;stroke-dasharray:none;stroke-dashoffset:0;stroke-opacity:0.995935;stop-color:#000000;stop-opacity:1" />
    <path
       style="font-variation-settings:normal;opacity:1;vector-effect:none;fill:#008080;fill-opacity:1;fill-rule:evenodd;stroke:#ffffff;stroke-width:0.382165;stroke-linecap:round;stroke-linejoin:round;stroke-miterlimit:4;stroke-dasharray:none;stroke-dashoffset:0;stroke-opacity:0.995935;stop-color:#000000;stop-opacity:1"
       id="path1957"
       sodipodi:type="arc"
       sodipodi:cx="116.4275"
       sodipodi:cy="94.19072"
       sodipodi:rx="3.2479782"
       sodipodi:ry="8.2536354"
       sodipodi:start="0"
       sodipodi:end="3.1415927"
       sodipodi:arc-type="arc"
       d="m 119.67548,94.19072 a 3.2479782,8.2536354 0 0 1 -1.62399,7.14786 3.2479782,8.2536354 0 0 1 -3.24798,0 3.2479782,8.2536354 0 0 1 -1.62399,-7.147861"
       sodipodi:open="true" />
    <path
       sodipodi:open="true"
       d="m 115.40179,93.951477 a 3.2479782,8.2536354 0 0 1 -1.62398,7.147863 3.2479782,8.2536354 0 0 1 -3.24798,-1e-5 3.2479782,8.2536354 0 0 1 -1.62399,-7.147853"
       sodipodi:arc-type="arc"
       sodipodi:end="3.1415927"
       sodipodi:start="0"
       sodipodi:ry="8.2536354"
       sodipodi:rx="3.2479782"
       sodipodi:cy="93.951477"
       sodipodi:cx="112.15382"
       sodipodi:type="arc"
       id="path1959"
       style="font-variation-settings:normal;opacity:1;vector-effect:none;fill:#27966c;fill-opacity:0.88235295;fill-rule:evenodd;stroke:#ffffff;stroke-width:0.382165;stroke-linecap:round;stroke-linejoin:round;stroke-miterlimit:4;stroke-dasharray:none;stroke-dashoffset:0;stroke-opacity:0.995935;stop-color:#000000;stop-opacity:1" />
    <path
       style="font-variation-settings:normal;opacity:1;vector-effect:none;fill:#28976c;fill-opacity:1;fill-rule:evenodd;stroke:#ffffff;stroke-width:0.382165;stroke-linecap:round;stroke-linejoin:round;stroke-miterlimit:4;stroke-dasharray:none;stroke-dashoffset:0;stroke-opacity:0.995935;stop-color:#000000;stop-opacity:1"
       id="path1939"
       sodipodi:type="arc"
       sodipodi:cx="104.80313"
       sodipodi:cy="88.449135"
       sodipodi:rx="3.2479782"
       sodipodi:ry="8.2536354"
       sodipodi:start="0"
       sodipodi:end="3.1415927"
       sodipodi:arc-type="arc"
       d="m 108.05111,88.449135 a 3.2479782,8.2536354 0 0 1 -1.62399,7.147858 3.2479782,8.2536354 0 0 1 -3.24798,0 3.2479782,8.2536354 0 0 1 -1.62399,-7.147859"
       sodipodi:open="true" />
    <path
       sodipodi:open="true"
       d="m 103.60651,88.449135 a 3.2479782,8.2536354 0 0 1 -1.62399,7.147858 3.2479782,8.2536354 0 0 1 -3.247981,0 3.2479782,8.2536354 0 0 1 -1.623989,-7.147859"
       sodipodi:arc-type="arc"
       sodipodi:end="3.1415927"
       sodipodi:start="0"
       sodipodi:ry="8.2536354"
       sodipodi:rx="3.2479782"
       sodipodi:cy="88.449135"
       sodipodi:cx="100.35853"
       sodipodi:type="arc"
       id="path1370"
       style="font-variation-settings:normal;opacity:1;vector-effect:none;fill:#008080;fill-opacity:1;fill-rule:evenodd;stroke:#ffffff;stroke-width:0.382165;stroke-linecap:round;stroke-linejoin:round;stroke-miterlimit:4;stroke-dasharray:none;stroke-dashoffset:0;stroke-opacity:0.995935;stop-color:#000000;stop-opacity:1" />
    <path
       sodipodi:open="true"
       d="m 112.83763,88.449135 a 3.2479782,8.2536354 0 0 1 -1.62399,7.147858 3.2479782,8.2536354 0 0 1 -3.24798,0 3.2479782,8.2536354 0 0 1 -1.62399,-7.147859"
       sodipodi:arc-type="arc"
       sodipodi:end="3.1415927"
       sodipodi:start="0"
       sodipodi:ry="8.2536354"
       sodipodi:rx="3.2479782"
       sodipodi:cy="88.449135"
       sodipodi:cx="109.58965"
       sodipodi:type="arc"
       id="path1941"
       style="font-variation-settings:normal;opacity:1;vector-effect:none;fill:#008080;fill-opacity:1;fill-rule:evenodd;stroke:#ffffff;stroke-width:0.382165;stroke-linecap:round;stroke-linejoin:round;stroke-miterlimit:4;stroke-dasharray:none;stroke-dashoffset:0;stroke-opacity:0.995935;stop-color:#000000;stop-opacity:1" />
    <path
       sodipodi:open="true"
       d="m 122.06871,88.927605 a 3.2479782,8.2536354 0 0 1 -1.62399,7.147858 3.2479782,8.2536354 0 0 1 -3.24798,-10e-7 3.2479782,8.2536354 0 0 1 -1.62399,-7.147858"
       sodipodi:arc-type="arc"
       sodipodi:end="3.1415927"
       sodipodi:start="0"
       sodipodi:ry="8.2536354"
       sodipodi:rx="3.2479782"
       sodipodi:cy="88.927605"
       sodipodi:cx="118.82073"
       sodipodi:type="arc"
       id="path1951"
       style="font-variation-settings:normal;opacity:1;vector-effect:none;fill:#008080;fill-opacity:1;fill-rule:evenodd;stroke:#ffffff;stroke-width:0.382165;stroke-linecap:round;stroke-linejoin:round;stroke-miterlimit:4;stroke-dasharray:none;stroke-dashoffset:0;stroke-opacity:0.995935;stop-color:#000000;stop-opacity:1" />
    <path
       style="font-variation-settings:normal;opacity:1;vector-effect:none;fill:#28976c;fill-opacity:1;fill-rule:evenodd;stroke:#ffffff;stroke-width:0.382165;stroke-linecap:round;stroke-linejoin:round;stroke-miterlimit:4;stroke-dasharray:none;stroke-dashoffset:0;stroke-opacity:0.995935;stop-color:#000000;stop-opacity:1"
       id="path1953"
       sodipodi:type="arc"
       sodipodi:cx="123.60715"
       sodipodi:cy="88.927605"
       sodipodi:rx="3.2479782"
       sodipodi:ry="8.2536354"
       sodipodi:start="0"
       sodipodi:end="3.1415927"
       sodipodi:arc-type="arc"
       d="m 126.85513,88.927605 a 3.2479782,8.2536354 0 0 1 -1.62399,7.147858 3.2479782,8.2536354 0 0 1 -3.24798,-10e-7 3.2479782,8.2536354 0 0 1 -1.62399,-7.147858"
       sodipodi:open="true" />
    <path
       style="font-variation-settings:normal;opacity:1;vector-effect:none;fill:#28976c;fill-opacity:1;fill-rule:evenodd;stroke:#ffffff;stroke-width:0.382165;stroke-linecap:round;stroke-linejoin:round;stroke-miterlimit:4;stroke-dasharray:none;stroke-dashoffset:0;stroke-opacity:0.995935;stop-color:#000000;stop-opacity:1"
       id="path1949"
       sodipodi:type="arc"
       sodipodi:cx="114.37612"
       sodipodi:cy="88.927605"
       sodipodi:rx="3.2479782"
       sodipodi:ry="8.2536354"
       sodipodi:start="0"
       sodipodi:end="3.1415927"
       sodipodi:arc-type="arc"
       d="m 117.6241,88.927605 a 3.2479782,8.2536354 0 0 1 -1.62399,7.147858 3.2479782,8.2536354 0 0 1 -3.24798,-10e-7 3.2479782,8.2536354 0 0 1 -1.62399,-7.147858"
       sodipodi:open="true" />
    <path
       inkscape:connector-curvature="0"
       d="m 64.533034,92.472406 a 21.375326,23.750362 66.490947 0 1 -0.188619,0.104904 21.375326,23.750362 66.490947 0 1 -0.189653,0.102836 21.375326,23.750362 66.490947 0 1 -0.190686,0.101804 21.375326,23.750362 66.490947 0 1 -0.191719,0.10025 21.375326,23.750362 66.490947 0 1 -0.192239,0.09819 21.375326,23.750362 66.490947 0 1 -0.192751,0.09715 21.375326,23.750362 66.490947 0 1 -0.193786,0.09509 21.375326,23.750362 66.490947 0 1 -0.194821,0.09405 21.375326,23.750362 66.490947 0 1 -0.195337,0.09198 21.375326,23.750362 66.490947 0 1 -0.196371,0.09095 21.375326,23.750362 66.490947 0 1 -0.196887,0.08888 21.375326,23.750362 66.490947 0 1 -0.197403,0.08733 21.375326,23.750362 66.490947 0 1 -0.04289,0.0186 21.375326,23.750362 66.490947 0 1 -0.198438,0.08527 21.375326,23.750362 66.490947 0 1 -0.199472,0.08371 21.375326,23.750362 66.490947 0 1 -0.199472,0.08217 21.375326,23.750362 66.490947 0 1 -0.20102,0.08062 21.375326,23.750362 66.490947 0 1 -0.201022,0.07906 21.375326,23.750362 66.490947 0 1 -0.201539,0.077 21.375326,23.750362 66.490947 0 1 -0.20257,0.07545 21.375326,23.750362 66.490947 0 1 -0.203089,0.07389 21.375326,23.750362 66.490947 0 1 -0.203605,0.07235 21.375326,23.750362 66.490947 0 1 -0.204122,0.07028 21.375326,23.750362 66.490947 0 1 -0.204638,0.06873 21.375326,23.750362 66.490947 0 1 -0.205156,0.06718 21.375326,23.750362 66.490947 0 1 -0.205672,0.06563 21.375326,23.750362 66.490947 0 1 -0.206189,0.06356 21.375326,23.750362 66.490947 0 1 -0.206706,0.06201 21.375326,23.750362 66.490947 0 1 -0.207222,0.06046 21.375326,23.750362 66.490947 0 1 -0.207739,0.05839 21.375326,23.750362 66.490947 0 1 -0.20774,0.05685 21.375326,23.750362 66.490947 0 1 -0.04599,0.0124 l -0.05943,0.377756 a 23.750362,21.375326 79.310213 0 0 7.703407,5.919024 21.375326,23.750362 66.490947 0 0 0.177765,-0.12092 21.375326,23.750362 66.490947 0 0 0.176734,-0.123 21.375326,23.750362 66.490947 0 0 0.176218,-0.12402 21.375326,23.750362 66.490947 0 0 0.174149,-0.12506 21.375326,23.750362 66.490947 0 0 0.173632,-0.12712 21.375326,23.750362 66.490947 0 0 0.172599,-0.12816 21.375326,23.750362 66.490947 0 0 0.17105,-0.12919 21.375326,23.750362 66.490947 0 0 0.170016,-0.13126 21.375326,23.750362 66.490947 0 0 0.168982,-0.13229 21.375326,23.750362 66.490947 0 0 0.167946,-0.133328 21.375326,23.750362 66.490947 0 0 0.1664,-0.134874 21.375326,23.750362 66.490947 0 0 0.165364,-0.136427 21.375326,23.750362 66.490947 0 0 0.16433,-0.137459 21.375326,23.750362 66.490947 0 0 0.162782,-0.13901 21.375326,23.750362 66.490947 0 0 0.161748,-0.140044 21.375326,23.750362 66.490947 0 0 0.160195,-0.141075 21.375326,23.750362 66.490947 0 0 0.159165,-0.142627 21.375326,23.750362 66.490947 0 0 0.05788,-0.05271 23.750362,21.375326 79.310213 0 1 -4.496366,-6.465239 z"
       style="font-variation-settings:normal;opacity:1;vector-effect:none;fill:#008080;fill-opacity:1;fill-rule:evenodd;stroke:#ffffff;stroke-width:0;stroke-linecap:round;stroke-linejoin:round;stroke-miterlimit:4;stroke-dasharray:none;stroke-dashoffset:0;stroke-opacity:0.995935;stop-color:#000000;stop-opacity:1"
       id="path1303" />
    <path
       sodipodi:nodetypes="csccccccccccccccccccccccccccccccccccccccc"
       inkscape:connector-curvature="0"
       d="m 72.917018,55.800743 c -1.190792,0.0024 -2.375522,0.114179 -3.541903,0.334346 -11.600485,2.189719 -19.03213,14.413839 -16.598987,27.303243 0.835305,4.424604 2.785399,8.544335 5.622912,11.878863 l 0.05943,-0.377756 0.04599,-0.01241 c 0.06932,-0.01865 0.138562,-0.03761 0.20774,-0.05685 0.06932,-0.01918 0.138564,-0.03864 0.207739,-0.05839 0.06915,-0.01987 0.138223,-0.04002 0.207222,-0.06046 0.06898,-0.02037 0.137882,-0.04106 0.206706,-0.06201 0.06881,-0.0209 0.137539,-0.04209 0.206189,-0.06356 0.06864,-0.02159 0.137198,-0.04347 0.205672,-0.06563 0.06847,-0.02212 0.136857,-0.04451 0.205156,-0.06718 0.0683,-0.02262 0.136514,-0.04554 0.204638,-0.06873 0.06813,-0.02315 0.136173,-0.04657 0.204122,-0.07028 0.06796,-0.02384 0.135832,-0.04795 0.203605,-0.07235 0.06779,-0.02434 0.13549,-0.04899 0.203089,-0.0739 0.06762,-0.02487 0.135147,-0.05002 0.20257,-0.07545 0.06728,-0.0254 0.134462,-0.05105 0.201539,-0.077 0.06711,-0.02609 0.13412,-0.05244 0.201022,-0.07906 0.06711,-0.0266 0.134123,-0.05347 0.20102,-0.08062 0.0666,-0.02712 0.133093,-0.0545 0.199472,-0.08217 0.0666,-0.02763 0.133096,-0.05554 0.199472,-0.08371 0.06626,-0.02815 0.132408,-0.05657 0.198438,-0.08527 l 0.04289,-0.0186 c 0.06592,-0.02884 0.131723,-0.05795 0.197403,-0.08733 0.06575,-0.02936 0.131382,-0.05899 0.196887,-0.08888 0.06558,-0.03005 0.13104,-0.06037 0.196371,-0.09095 0.06524,-0.03039 0.130353,-0.06105 0.195337,-0.09198 0.06507,-0.03109 0.130011,-0.06244 0.194821,-0.09405 0.06473,-0.03143 0.129323,-0.06313 0.193786,-0.09509 0.06439,-0.03212 0.128637,-0.06451 0.192751,-0.09715 0.06422,-0.03247 0.128297,-0.0652 0.192239,-0.09819 0.06405,-0.03316 0.127955,-0.06657 0.191719,-0.100251 0.06371,-0.03368 0.127268,-0.06761 0.190686,-0.101803 0.06336,-0.03402 0.126581,-0.0683 0.189653,-0.102836 0.06302,-0.03471 0.125897,-0.06968 0.188619,-0.104905 -1.000975,-2.06784 -1.372005,-4.452432 -1.801667,-6.727899 -2.432837,-12.889404 4.643196,-24.935351 16.243678,-27.124813 1.1958,-0.225554 2.41082,-0.337235 3.631819,-0.33383 -3.039867,-1.64075 -6.357559,-2.491626 -9.689846,-2.48512 z"
       style="font-variation-settings:normal;opacity:1;vector-effect:none;fill:#008080;fill-opacity:1;fill-rule:evenodd;stroke:#ffffff;stroke-width:0;stroke-linecap:round;stroke-linejoin:round;stroke-miterlimit:4;stroke-dasharray:none;stroke-dashoffset:0;stroke-opacity:0.995935;stop-color:#000000;stop-opacity:1"
       id="path1301" />
    <path
       sodipodi:nodetypes="cccccccccccccccccccccccccccccccccccccccccc"
       inkscape:connector-curvature="0"
       d="m 69.0294,98.937645 c 6.146673,-5.594017 8.897569,-15.948506 3.521146,-19.133415 -0.845042,4.664858 -2.213975,9.418812 -8.017512,12.668176 l 0.02222,0.04599 c 0.03126,0.06423 0.06279,0.128305 0.09457,0.192236 0.03178,0.06406 0.06382,0.127963 0.09612,0.19172 0.0323,0.06371 0.06485,0.127277 0.09767,0.190688 0.03265,0.0632 0.06555,0.126243 0.0987,0.189134 0.03333,0.0632 0.06692,0.126249 0.100769,0.189135 0.03385,0.06269 0.06796,0.125219 0.10232,0.187587 0.03437,0.06235 0.069,0.124531 0.10387,0.186552 0.03489,0.06218 0.07003,0.124188 0.105421,0.186034 0.03524,0.06166 0.07072,0.123158 0.106452,0.184486 0.03593,0.06149 0.0721,0.122817 0.108522,0.183968 0.03627,0.06115 0.07279,0.122129 0.109553,0.182935 0.03679,0.06064 0.07383,0.121097 0.111104,0.181383 0.03731,0.06047 0.07486,0.120758 0.112654,0.180869 0.03783,0.05995 0.0759,0.119724 0.114205,0.179316 0.03817,0.05978 0.07659,0.119383 0.115239,0.1788 0.03869,0.05927 0.07762,0.118351 0.116787,0.17725 0.03921,0.05893 0.07866,0.117665 0.11834,0.176217 0.03973,0.05858 0.07969,0.116981 0.119891,0.175184 0.04025,0.05807 0.08073,0.115948 0.121438,0.173633 0.04059,0.0579 0.08142,0.115607 0.122473,0.173116 0.04094,0.05738 0.08211,0.114573 0.123508,0.171564 0.04163,0.05704 0.08349,0.11389 0.125574,0.170532 0.04198,0.05653 0.08418,0.112858 0.126606,0.168984 0.04249,0.05619 0.08522,0.11217 0.128158,0.167947 0.04284,0.05585 0.08591,0.111485 0.129191,0.166915 0.04336,0.05533 0.08694,0.110453 0.130741,0.165365 0.04371,0.05499 0.08763,0.109765 0.131776,0.16433 0.04422,0.05465 0.08866,0.10908 0.133324,0.163298 0.04474,0.05413 0.0897,0.108048 0.134876,0.161748 0.04492,0.05361 0.09005,0.107016 0.135393,0.160197 0.04561,0.05327 0.09143,0.106331 0.137459,0.159163 0.04595,0.05276 0.09212,0.105299 0.138493,0.157615 0.0463,0.05242 0.09281,0.104611 0.139526,0.156577 0.04665,0.0519 0.0935,0.103579 0.14056,0.15503 0.04717,0.05139 0.09454,0.10255 0.14211,0.15348 0.04769,0.05105 0.09557,0.101862 0.143661,0.152445 0.04786,0.05053 0.09592,0.10083 0.144177,0.150894 z"
       style="font-variation-settings:normal;opacity:1;vector-effect:none;fill:#28976c;fill-opacity:1;fill-rule:evenodd;stroke:#ffffff;stroke-width:0;stroke-linecap:round;stroke-linejoin:round;stroke-miterlimit:4;stroke-dasharray:none;stroke-dashoffset:0;stroke-opacity:0.995935;stop-color:#000000;stop-opacity:1"
       id="path1286" />
    <path
       inkscape:connector-curvature="0"
       d="m 58.39904,95.317195 a 23.750362,21.375326 79.310213 0 0 0.125057,0.145209 23.750362,21.375326 79.310213 0 0 0.137977,0.158647 23.750362,21.375326 79.310213 0 0 0.139009,0.15658 23.750362,21.375326 79.310213 0 0 0.14056,0.155546 23.750362,21.375326 79.310213 0 0 0.141593,0.153995 23.750362,21.375326 79.310213 0 0 0.143144,0.152964 23.750362,21.375326 79.310213 0 0 0.144177,0.15141 23.750362,21.375326 79.310213 0 0 0.145211,0.149863 23.750362,21.375326 79.310213 0 0 0.146244,0.148312 23.750362,21.375326 79.310213 0 0 0.147795,0.147278 23.750362,21.375326 79.310213 0 0 0.148828,0.145727 23.750362,21.375326 79.310213 0 0 0.149862,0.144177 23.750362,21.375326 79.310213 0 0 0.151412,0.142626 23.750362,21.375326 79.310213 0 0 0.151928,0.141594 23.750362,21.375326 79.310213 0 0 0.153479,0.140044 23.750362,21.375326 79.310213 0 0 0.154513,0.137975 23.750362,21.375326 79.310213 0 0 0.155546,0.136943 23.750362,21.375326 79.310213 0 0 0.156581,0.135393 23.750362,21.375326 79.310213 0 0 0.157612,0.133842 23.750362,21.375326 79.310213 0 0 0.158647,0.131773 23.750362,21.375326 79.310213 0 0 0.159679,0.130741 23.750362,21.375326 79.310213 0 0 0.160713,0.129194 23.750362,21.375326 79.310213 0 0 0.161748,0.12764 23.750362,21.375326 79.310213 0 0 0.162782,0.12609 23.750362,21.375326 79.310213 0 0 0.163298,0.124023 23.750362,21.375326 79.310213 0 0 0.164846,0.122989 23.750362,21.375326 79.310213 0 0 0.165365,0.120923 23.750362,21.375326 79.310213 0 0 0.166915,0.119374 23.750362,21.375326 79.310213 0 0 0.167431,0.118338 23.750362,21.375326 79.310213 0 0 0.168465,0.115755 23.750362,21.375326 79.310213 0 0 0.168982,0.114724 23.750362,21.375326 79.310213 0 0 0.170016,0.11317 23.750362,21.375326 79.310213 0 0 0.17105,0.111104 23.750362,21.375326 79.310213 0 0 0.172082,0.109553 23.750362,21.375326 79.310213 0 0 0.172599,0.108009 23.750362,21.375326 79.310213 0 0 0.173632,0.10593 23.750362,21.375326 79.310213 0 0 0.174149,0.10439 23.750362,21.375326 79.310213 0 0 0.175183,0.10283 23.750362,21.375326 79.310213 0 0 0.175702,0.10077 23.750362,21.375326 79.310213 0 0 0.176734,0.0992 23.750362,21.375326 79.310213 0 0 0.17725,0.0977 23.750362,21.375326 79.310213 0 0 0.178281,0.0956 23.750362,21.375326 79.310213 0 0 0.178803,0.094 23.750362,21.375326 79.310213 0 0 0.179832,0.0925 23.750362,21.375326 79.310213 0 0 0.180351,0.0904 23.750362,21.375326 79.310213 0 0 0.180869,0.0884 23.750362,21.375326 79.310213 0 0 0.181385,0.0873 23.750362,21.375326 79.310213 0 0 0.12609,0.0584 21.375326,23.750362 66.490947 0 0 2.926953,-2.298567 23.750362,21.375326 79.310213 0 1 -0.01292,-0.01292 23.750362,21.375326 79.310213 0 1 -0.144177,-0.150894 23.750362,21.375326 79.310213 0 1 -0.14366,-0.152445 23.750362,21.375326 79.310213 0 1 -0.142111,-0.15348 23.750362,21.375326 79.310213 0 1 -0.14056,-0.15503 23.750362,21.375326 79.310213 0 1 -0.139525,-0.156577 23.750362,21.375326 79.310213 0 1 -0.138493,-0.157615 23.750362,21.375326 79.310213 0 1 -0.137459,-0.159163 23.750362,21.375326 79.310213 0 1 -0.135393,-0.160197 23.750362,21.375326 79.310213 0 1 -0.134877,-0.161748 23.750362,21.375326 79.310213 0 1 -0.133323,-0.163298 23.750362,21.375326 79.310213 0 1 -0.131776,-0.16433 23.750362,21.375326 79.310213 0 1 -0.130741,-0.165365 23.750362,21.375326 79.310213 0 1 -0.129191,-0.166915 23.750362,21.375326 79.310213 0 1 -0.128159,-0.167947 23.750362,21.375326 79.310213 0 1 -0.126606,-0.168984 23.750362,21.375326 79.310213 0 1 -0.125573,-0.170532 23.750362,21.375326 79.310213 0 1 -0.123508,-0.171564 23.750362,21.375326 79.310213 0 1 -0.122473,-0.173116 23.750362,21.375326 79.310213 0 1 -0.121438,-0.173633 23.750362,21.375326 79.310213 0 1 -0.119891,-0.175184 23.750362,21.375326 79.310213 0 1 -0.11834,-0.176217 23.750362,21.375326 79.310213 0 1 -0.116787,-0.17725 23.750362,21.375326 79.310213 0 1 -0.11524,-0.1788 23.750362,21.375326 79.310213 0 1 -0.114204,-0.179316 23.750362,21.375326 79.310213 0 1 -0.112655,-0.180869 23.750362,21.375326 79.310213 0 1 -0.111103,-0.181383 23.750362,21.375326 79.310213 0 1 -0.109554,-0.182935 23.750362,21.375326 79.310213 0 1 -0.108521,-0.183968 23.750362,21.375326 79.310213 0 1 -0.106453,-0.184486 23.750362,21.375326 79.310213 0 1 -0.10542,-0.186034 23.750362,21.375326 79.310213 0 1 -0.10387,-0.186552 23.750362,21.375326 79.310213 0 1 -0.10232,-0.187587 23.750362,21.375326 79.310213 0 1 -0.100769,-0.189135 23.750362,21.375326 79.310213 0 1 -0.0987,-0.189134 23.750362,21.375326 79.310213 0 1 -0.09767,-0.190688 23.750362,21.375326 79.310213 0 1 -0.09612,-0.19172 23.750362,21.375326 79.310213 0 1 -0.09457,-0.192236 23.750362,21.375326 79.310213 0 1 -0.02222,-0.04599 21.375326,23.750362 66.490947 0 1 -2.363163,1.172022 21.375326,23.750362 66.490947 0 1 -3.711403,1.295011 z"
       style="font-variation-settings:normal;opacity:1;vector-effect:none;fill:#28976c;fill-opacity:1;fill-rule:evenodd;stroke:#ffffff;stroke-width:0;stroke-linecap:round;stroke-linejoin:round;stroke-miterlimit:4;stroke-dasharray:none;stroke-dashoffset:0;stroke-opacity:0.995935;stop-color:#000000;stop-opacity:1"
       id="path1294" />
    <path
       inkscape:connector-curvature="0"
       d="M 77.146216,51.78807 A 23.750362,21.375326 0 0 0 53.741444,69.532206 23.750362,21.375326 0 0 1 72.924252,60.76013 23.750362,21.375326 0 0 1 95.439155,75.331851 V 59.530231 A 23.750362,21.375326 0 0 0 77.146216,51.78807 Z"
       style="font-variation-settings:normal;opacity:1;vector-effect:none;fill:#28976c;fill-opacity:1;fill-rule:evenodd;stroke:#ffffff;stroke-width:0;stroke-linecap:round;stroke-linejoin:round;stroke-miterlimit:4;stroke-dasharray:none;stroke-dashoffset:0;stroke-opacity:0.995935;stop-color:#000000;stop-opacity:1"
       id="path1309" />
    <rect
       y="58.16721"
       x="95.866051"
       height="31.403145"
       width="31.403145"
       id="rect1312"
       style="fill:#ececec;fill-rule:evenodd;stroke-width:1.31555;stroke-linecap:round;stroke-linejoin:round;stroke-dashoffset:7.55907" />
    <circle
       r="3.9999995"
       cy="64.319298"
       cx="104.1348"
       id="path1314"
       style="font-variation-settings:normal;opacity:1;vector-effect:none;fill:#000000;fill-opacity:1;fill-rule:evenodd;stroke:#ffffff;stroke-width:0;stroke-linecap:round;stroke-linejoin:round;stroke-miterlimit:4;stroke-dasharray:none;stroke-dashoffset:0;stroke-opacity:0.995935;stop-color:#000000;stop-opacity:1" />
    <circle
       style="font-variation-settings:normal;opacity:1;vector-effect:none;fill:#000000;fill-opacity:1;fill-rule:evenodd;stroke:#ffffff;stroke-width:0;stroke-linecap:round;stroke-linejoin:round;stroke-miterlimit:4;stroke-dasharray:none;stroke-dashoffset:0;stroke-opacity:0.995935;stop-color:#000000;stop-opacity:1"
       id="circle1316"
       cx="104.1348"
       cy="74.137451"
       r="3.9999995" />
    <circle
       r="3.9999995"
       cy="84.191628"
       cx="104.1348"
       id="circle1318"
       style="font-variation-settings:normal;opacity:1;vector-effect:none;fill:#000000;fill-opacity:1;fill-rule:evenodd;stroke:#ffffff;stroke-width:0;stroke-linecap:round;stroke-linejoin:round;stroke-miterlimit:4;stroke-dasharray:none;stroke-dashoffset:0;stroke-opacity:0.995935;stop-color:#000000;stop-opacity:1" />
    <circle
       style="font-variation-settings:normal;opacity:1;vector-effect:none;fill:#000000;fill-opacity:1;fill-rule:evenodd;stroke:#ffffff;stroke-width:0;stroke-linecap:round;stroke-linejoin:round;stroke-miterlimit:4;stroke-dasharray:none;stroke-dashoffset:0;stroke-opacity:0.995935;stop-color:#000000;stop-opacity:1"
       id="circle1320"
       cx="118.95147"
       cy="64.319298"
       r="3.9999995" />
    <circle
       r="3.9999995"
       cy="74.137451"
       cx="118.95147"
       id="circle1322"
       style="font-variation-settings:normal;opacity:1;vector-effect:none;fill:#000000;fill-opacity:1;fill-rule:evenodd;stroke:#ffffff;stroke-width:0;stroke-linecap:round;stroke-linejoin:round;stroke-miterlimit:4;stroke-dasharray:none;stroke-dashoffset:0;stroke-opacity:0.995935;stop-color:#000000;stop-opacity:1" />
    <circle
       style="font-variation-settings:normal;opacity:1;vector-effect:none;fill:#000000;fill-opacity:1;fill-rule:evenodd;stroke:#ffffff;stroke-width:0;stroke-linecap:round;stroke-linejoin:round;stroke-miterlimit:4;stroke-dasharray:none;stroke-dashoffset:0;stroke-opacity:0.995935;stop-color:#000000;stop-opacity:1"
       id="circle1324"
       cx="118.95147"
       cy="84.191628"
       r="3.9999995" />
    <path
       sodipodi:nodetypes="ccccc"
       inkscape:connector-curvature="0"
       d="m 98.300216,49.139612 h 27.985134 l 0.98399,9.02759 H 95.866039 Z"
       style="fill:#cccccc;fill-rule:evenodd;stroke-width:1.16372;stroke-linecap:round;stroke-linejoin:round;stroke-dashoffset:7.55907"
       id="rect1326" />
    <path
       id="path1332"
       style="font-variation-settings:normal;opacity:1;vector-effect:none;fill:#008080;fill-opacity:1;fill-rule:evenodd;stroke:#ffffff;stroke-width:0;stroke-linecap:round;stroke-linejoin:round;stroke-miterlimit:4;stroke-dasharray:none;stroke-dashoffset:0;stroke-opacity:0.995935;stop-color:#000000;stop-opacity:1"
       d="m 149.97886,55.883523 c 1.1908,0.0024 2.37554,0.114179 3.54193,0.334346 11.60055,2.189719 19.03223,14.413839 16.59908,27.303243 -0.83531,4.424604 -2.78542,8.544335 -5.62295,11.878863 l -0.0594,-0.377756 -0.046,-0.01241 c -0.0693,-0.01865 -0.13856,-0.03761 -0.20774,-0.05685 -0.0693,-0.01918 -0.13856,-0.03864 -0.20774,-0.05839 -0.0691,-0.01987 -0.13822,-0.04002 -0.20722,-0.06046 -0.069,-0.02037 -0.13788,-0.04106 -0.20671,-0.06201 -0.0688,-0.0209 -0.13754,-0.04209 -0.20619,-0.06356 -0.0686,-0.02159 -0.1372,-0.04347 -0.20567,-0.06563 -0.0685,-0.02212 -0.13686,-0.04451 -0.20516,-0.06718 -0.0683,-0.02262 -0.13652,-0.04554 -0.20464,-0.06873 -0.0681,-0.02315 -0.13617,-0.04657 -0.20412,-0.07028 -0.068,-0.02384 -0.13584,-0.04795 -0.20361,-0.07235 -0.0678,-0.02434 -0.13549,-0.04899 -0.20309,-0.0739 -0.0676,-0.02487 -0.13514,-0.05002 -0.20257,-0.07545 -0.0673,-0.0254 -0.13446,-0.05105 -0.20154,-0.077 -0.0671,-0.02609 -0.13412,-0.05244 -0.20102,-0.07906 -0.0671,-0.0266 -0.13412,-0.05347 -0.20103,-0.08062 -0.0666,-0.02712 -0.13309,-0.0545 -0.19947,-0.08217 -0.0666,-0.02763 -0.13309,-0.05554 -0.19947,-0.08371 -0.0663,-0.02815 -0.13241,-0.05657 -0.19844,-0.08527 l -0.0429,-0.0186 c -0.0659,-0.02884 -0.13172,-0.05795 -0.1974,-0.08733 -0.0658,-0.02936 -0.13138,-0.05899 -0.19689,-0.08888 -0.0656,-0.03005 -0.13104,-0.06037 -0.19637,-0.09095 -0.0652,-0.03039 -0.13036,-0.06105 -0.19534,-0.09198 -0.0651,-0.03109 -0.13001,-0.06244 -0.19482,-0.09405 -0.0647,-0.03143 -0.12933,-0.06313 -0.19379,-0.09509 -0.0644,-0.03212 -0.12864,-0.06451 -0.19275,-0.09715 -0.0642,-0.03247 -0.1283,-0.0652 -0.19224,-0.09819 -0.0641,-0.03316 -0.12796,-0.06657 -0.19172,-0.100251 -0.0637,-0.03368 -0.12727,-0.06761 -0.19069,-0.101803 -0.0634,-0.03402 -0.12658,-0.0683 -0.18965,-0.102836 -0.063,-0.03471 -0.1259,-0.06968 -0.18862,-0.104905 1.00098,-2.06784 1.37201,-4.452432 1.80167,-6.727899 2.43286,-12.889404 -4.64322,-24.935351 -16.24377,-27.124813 -1.1958,-0.225554 -2.41083,-0.337235 -3.63183,-0.33383 3.03988,-1.64075 6.35759,-2.491626 9.6899,-2.48512 z"
       inkscape:connector-curvature="0"
       sodipodi:nodetypes="csccccccccccccccccccccccccccccccccccccccc" />
    <path
       id="path1334"
       style="font-variation-settings:normal;opacity:1;vector-effect:none;fill:#28976c;fill-opacity:1;fill-rule:evenodd;stroke:#ffffff;stroke-width:0;stroke-linecap:round;stroke-linejoin:round;stroke-miterlimit:4;stroke-dasharray:none;stroke-dashoffset:0;stroke-opacity:0.995935;stop-color:#000000;stop-opacity:1"
       d="m 153.8665,99.020425 c -6.1467,-5.594017 -8.89762,-15.948506 -3.52116,-19.133415 0.84504,4.664858 2.21398,9.418812 8.01756,12.668176 l -0.0222,0.04599 c -0.0313,0.06423 -0.0628,0.128305 -0.0946,0.192236 -0.0318,0.06406 -0.0638,0.127963 -0.0961,0.19172 -0.0323,0.06371 -0.0649,0.127277 -0.0977,0.190688 -0.0327,0.0632 -0.0656,0.126243 -0.0987,0.189134 -0.0333,0.0632 -0.0669,0.126249 -0.10077,0.189135 -0.0339,0.06269 -0.068,0.125219 -0.10232,0.187587 -0.0344,0.06235 -0.069,0.124531 -0.10388,0.186552 -0.0349,0.06218 -0.07,0.124188 -0.10542,0.186034 -0.0352,0.06166 -0.0707,0.123158 -0.10645,0.184486 -0.0359,0.06149 -0.0721,0.122817 -0.10852,0.183968 -0.0363,0.06115 -0.0728,0.122129 -0.10955,0.182935 -0.0368,0.06064 -0.0738,0.121097 -0.11111,0.181383 -0.0373,0.06047 -0.0749,0.120758 -0.11265,0.180869 -0.0378,0.05995 -0.0759,0.119724 -0.11421,0.179316 -0.0382,0.05978 -0.0766,0.119383 -0.11524,0.1788 -0.0387,0.05927 -0.0776,0.118351 -0.11679,0.17725 -0.0392,0.05893 -0.0787,0.117665 -0.11834,0.176217 -0.0397,0.05858 -0.0797,0.116981 -0.11989,0.175184 -0.0403,0.05807 -0.0807,0.115948 -0.12144,0.173633 -0.0406,0.0579 -0.0814,0.115607 -0.12247,0.173116 -0.0409,0.05738 -0.0821,0.114573 -0.12351,0.171564 -0.0416,0.05704 -0.0835,0.11389 -0.12558,0.170532 -0.042,0.05653 -0.0842,0.112858 -0.1266,0.168984 -0.0425,0.05619 -0.0852,0.11217 -0.12816,0.167947 -0.0428,0.05585 -0.0859,0.111485 -0.12919,0.166915 -0.0434,0.05533 -0.0869,0.110453 -0.13075,0.165365 -0.0437,0.05499 -0.0876,0.109765 -0.13177,0.16433 -0.0442,0.05465 -0.0887,0.10908 -0.13332,0.163298 -0.0447,0.05413 -0.0897,0.108048 -0.13488,0.161748 -0.0449,0.05361 -0.0901,0.107016 -0.1354,0.160197 -0.0456,0.05327 -0.0914,0.106331 -0.13746,0.159163 -0.046,0.05276 -0.0921,0.105299 -0.13849,0.157615 -0.0463,0.05242 -0.0928,0.104611 -0.13953,0.156577 -0.0466,0.0519 -0.0935,0.103579 -0.14056,0.15503 -0.0472,0.05139 -0.0945,0.10255 -0.14211,0.15348 -0.0477,0.05105 -0.0956,0.101862 -0.14366,0.152445 -0.0479,0.05053 -0.0959,0.10083 -0.14418,0.150894 z"
       inkscape:connector-curvature="0"
       sodipodi:nodetypes="cccccccccccccccccccccccccccccccccccccccccc" />
    <path
       inkscape:connector-curvature="0"
       id="path1336"
       style="font-variation-settings:normal;opacity:1;vector-effect:none;fill:#28976c;fill-opacity:1;fill-rule:evenodd;stroke:#ffffff;stroke-width:0;stroke-linecap:round;stroke-linejoin:round;stroke-miterlimit:4;stroke-dasharray:none;stroke-dashoffset:0;stroke-opacity:0.995935;stop-color:#000000;stop-opacity:1"
       d="m 164.49692,95.399975 a 21.375326,23.750362 10.689787 0 1 -0.12506,0.145209 21.375326,23.750362 10.689787 0 1 -0.13797,0.158647 21.375326,23.750362 10.689787 0 1 -0.13901,0.15658 21.375326,23.750362 10.689787 0 1 -0.14056,0.155546 21.375326,23.750362 10.689787 0 1 -0.1416,0.153995 21.375326,23.750362 10.689787 0 1 -0.14314,0.152964 21.375326,23.750362 10.689787 0 1 -0.14418,0.15141 21.375326,23.750362 10.689787 0 1 -0.14521,0.149863 21.375326,23.750362 10.689787 0 1 -0.14625,0.148312 21.375326,23.750362 10.689787 0 1 -0.14779,0.147278 21.375326,23.750362 10.689787 0 1 -0.14883,0.145727 21.375326,23.750362 10.689787 0 1 -0.14986,0.144177 21.375326,23.750362 10.689787 0 1 -0.15142,0.142626 21.375326,23.750362 10.689787 0 1 -0.15192,0.141594 21.375326,23.750362 10.689787 0 1 -0.15349,0.140044 21.375326,23.750362 10.689787 0 1 -0.15451,0.137975 21.375326,23.750362 10.689787 0 1 -0.15555,0.136943 21.375326,23.750362 10.689787 0 1 -0.15658,0.135393 21.375326,23.750362 10.689787 0 1 -0.15761,0.133842 21.375326,23.750362 10.689787 0 1 -0.15865,0.131773 21.375326,23.750362 10.689787 0 1 -0.15968,0.130741 21.375326,23.750362 10.689787 0 1 -0.16071,0.129194 21.375326,23.750362 10.689787 0 1 -0.16175,0.12764 21.375326,23.750362 10.689787 0 1 -0.16278,0.12609 21.375326,23.750362 10.689787 0 1 -0.1633,0.124023 21.375326,23.750362 10.689787 0 1 -0.16485,0.122989 21.375326,23.750362 10.689787 0 1 -0.16536,0.120923 21.375326,23.750362 10.689787 0 1 -0.16692,0.119374 21.375326,23.750362 10.689787 0 1 -0.16743,0.118338 21.375326,23.750362 10.689787 0 1 -0.16847,0.115755 21.375326,23.750362 10.689787 0 1 -0.16898,0.114724 21.375326,23.750362 10.689787 0 1 -0.17002,0.11317 21.375326,23.750362 10.689787 0 1 -0.17105,0.111104 21.375326,23.750362 10.689787 0 1 -0.17209,0.109553 21.375326,23.750362 10.689787 0 1 -0.17259,0.108009 21.375326,23.750362 10.689787 0 1 -0.17364,0.10593 21.375326,23.750362 10.689787 0 1 -0.17415,0.10439 21.375326,23.750362 10.689787 0 1 -0.17518,0.10283 21.375326,23.750362 10.689787 0 1 -0.1757,0.10077 21.375326,23.750362 10.689787 0 1 -0.17674,0.0992 21.375326,23.750362 10.689787 0 1 -0.17725,0.0977 21.375326,23.750362 10.689787 0 1 -0.17828,0.0956 21.375326,23.750362 10.689787 0 1 -0.17881,0.094 21.375326,23.750362 10.689787 0 1 -0.17983,0.0925 21.375326,23.750362 10.689787 0 1 -0.18035,0.0904 21.375326,23.750362 10.689787 0 1 -0.18087,0.0884 21.375326,23.750362 10.689787 0 1 -0.18139,0.0873 21.375326,23.750362 10.689787 0 1 -0.12609,0.0584 23.750362,21.375326 23.509053 0 1 -2.92697,-2.298567 21.375326,23.750362 10.689787 0 0 0.0129,-0.01292 21.375326,23.750362 10.689787 0 0 0.14418,-0.150894 21.375326,23.750362 10.689787 0 0 0.14366,-0.152445 21.375326,23.750362 10.689787 0 0 0.14211,-0.15348 21.375326,23.750362 10.689787 0 0 0.14056,-0.15503 21.375326,23.750362 10.689787 0 0 0.13953,-0.156577 21.375326,23.750362 10.689787 0 0 0.1385,-0.157615 21.375326,23.750362 10.689787 0 0 0.13745,-0.159163 21.375326,23.750362 10.689787 0 0 0.1354,-0.160197 21.375326,23.750362 10.689787 0 0 0.13488,-0.161748 21.375326,23.750362 10.689787 0 0 0.13332,-0.163298 21.375326,23.750362 10.689787 0 0 0.13178,-0.16433 21.375326,23.750362 10.689787 0 0 0.13074,-0.165365 21.375326,23.750362 10.689787 0 0 0.12919,-0.166915 21.375326,23.750362 10.689787 0 0 0.12816,-0.167947 21.375326,23.750362 10.689787 0 0 0.12661,-0.168984 21.375326,23.750362 10.689787 0 0 0.12557,-0.170532 21.375326,23.750362 10.689787 0 0 0.12351,-0.171564 21.375326,23.750362 10.689787 0 0 0.12247,-0.173116 21.375326,23.750362 10.689787 0 0 0.12144,-0.173633 21.375326,23.750362 10.689787 0 0 0.11989,-0.175184 21.375326,23.750362 10.689787 0 0 0.11835,-0.176217 21.375326,23.750362 10.689787 0 0 0.11678,-0.17725 21.375326,23.750362 10.689787 0 0 0.11524,-0.1788 21.375326,23.750362 10.689787 0 0 0.11421,-0.179316 21.375326,23.750362 10.689787 0 0 0.11265,-0.180869 21.375326,23.750362 10.689787 0 0 0.11111,-0.181383 21.375326,23.750362 10.689787 0 0 0.10955,-0.182935 21.375326,23.750362 10.689787 0 0 0.10852,-0.183968 21.375326,23.750362 10.689787 0 0 0.10645,-0.184486 21.375326,23.750362 10.689787 0 0 0.10543,-0.186034 21.375326,23.750362 10.689787 0 0 0.10387,-0.186552 21.375326,23.750362 10.689787 0 0 0.10232,-0.187587 21.375326,23.750362 10.689787 0 0 0.10077,-0.189135 21.375326,23.750362 10.689787 0 0 0.0987,-0.189134 21.375326,23.750362 10.689787 0 0 0.0977,-0.190688 21.375326,23.750362 10.689787 0 0 0.0961,-0.19172 21.375326,23.750362 10.689787 0 0 0.0946,-0.192236 21.375326,23.750362 10.689787 0 0 0.0222,-0.04599 23.750362,21.375326 23.509053 0 0 2.36318,1.172022 23.750362,21.375326 23.509053 0 0 3.71142,1.295011 z" />
    <path
       inkscape:connector-curvature="0"
       id="path1338"
       style="font-variation-settings:normal;opacity:1;vector-effect:none;fill:#28976c;fill-opacity:1;fill-rule:evenodd;stroke:#ffffff;stroke-width:0;stroke-linecap:round;stroke-linejoin:round;stroke-miterlimit:4;stroke-dasharray:none;stroke-dashoffset:0;stroke-opacity:0.995935;stop-color:#000000;stop-opacity:1"
       d="M 145.74964,51.87085 A 23.750362,21.375326 0 0 1 169.15455,69.614986 23.750362,21.375326 0 0 0 149.97163,60.84291 23.750362,21.375326 0 0 0 127.4566,75.414631 v -15.80162 a 23.750362,21.375326 0 0 1 18.29304,-7.742161 z" />
  </g>
</svg>
