<?xml version="1.0" encoding="UTF-8" standalone="no"?>
<svg
   xmlns:dc="http://purl.org/dc/elements/1.1/"
   xmlns:cc="http://creativecommons.org/ns#"
   xmlns:rdf="http://www.w3.org/1999/02/22-rdf-syntax-ns#"
   xmlns:svg="http://www.w3.org/2000/svg"
   xmlns="http://www.w3.org/2000/svg"
   xmlns:sodipodi="http://sodipodi.sourceforge.net/DTD/sodipodi-0.dtd"
   xmlns:inkscape="http://www.inkscape.org/namespaces/inkscape"
   sodipodi:docname="geometric pattern.svg"
   inkscape:version="1.0beta2 (2b71d25, 2019-12-03)"
   id="svg8"
   version="1.1"
   viewBox="0 0 210 297"
   height="297mm"
   width="210mm">
  <defs
     id="defs2" />
  <sodipodi:namedview
     inkscape:window-maximized="0"
     inkscape:window-y="0"
     inkscape:window-x="0"
     inkscape:window-height="900"
     inkscape:window-width="1440"
     inkscape:snap-global="true"
     showgrid="false"
     inkscape:document-rotation="0"
     inkscape:current-layer="layer1"
     inkscape:document-units="mm"
     inkscape:cy="921.68741"
     inkscape:cx="24.654417"
     inkscape:zoom="0.17565816"
     inkscape:pageshadow="2"
     inkscape:pageopacity="0.0"
     borderopacity="1.0"
     bordercolor="#666666"
     pagecolor="#ffffff"
     id="base" />
  <metadata
     id="metadata5">
    <rdf:RDF>
      <cc:Work
         rdf:about="">
        <dc:format>image/svg+xml</dc:format>
        <dc:type
           rdf:resource="http://purl.org/dc/dcmitype/StillImage" />
        <dc:title></dc:title>
      </cc:Work>
    </rdf:RDF>
  </metadata>
  <g
     id="layer1"
     inkscape:groupmode="layer"
     inkscape:label="Laag 1">
    <path
       inkscape:connector-curvature="0"
       d="m 109.99961,365.96707 21.00905,81.20073 -296.97463,-52.70478 v 11.51662 l 78.043295,13.85083 5.53248,2.89182 -83.575775,231.89125 v 19.02624 h 5.19606 l 88.522247,-245.61551 99.115397,51.81132 -120.734747,193.80419 h 13.359908 L 36.945671,485.104 179.74419,559.7506 50.954636,673.63978 H 68.071937 L 190.50219,565.37456 397.61359,673.63978 h 10.18799 v -7.46985 L 199.59621,557.33266 407.80158,373.21626 v -7.24919 H 398.8812 L 277.63124,473.18896 143.28543,449.34649 121.71259,365.96707 Z m -160.863564,60.44025 317.648304,56.37382 -77.94614,68.92809 z"
       style="fill:#000000;fill-rule:evenodd;stroke-width:0.912521;stroke-linecap:round;stroke-linejoin:round;stroke-dashoffset:7.55907"
       id="path249" />
    <rect
       y="-47.377842"
       x="-248.32523"
       height="410.88025"
       width="779.28381"
       id="rect165"
       style="fill:#999999;fill-rule:evenodd;stroke-width:1;stroke-linecap:round;stroke-linejoin:round;stroke-dashoffset:7.55907" />
    <rect
       y="3.7796142"
       x="-159.50603"
       height="307.6727"
       width="573.76807"
       id="rect12"
       style="fill:#000000;fill-rule:evenodd;stroke-width:0.912522;stroke-linecap:round;stroke-linejoin:round;stroke-dashoffset:7.55907" />
    <path
       transform="scale(0.26458333)"
       d="M -602.85742 1149.7461 L 184.0625 453.87109 L -602.85742 42.515625 L -602.85742 1149.7461 z "
       style="fill:#ff0000;fill-rule:evenodd;stroke-width:3.77953;stroke-linecap:round;stroke-linejoin:round;stroke-dashoffset:7.55907"
       id="rect16" />
    <path
       transform="scale(0.26458333)"
       d="M -69.876953 735.64062 L 1130.6836 948.70703 L 224.72266 475.125 L -69.876953 735.64062 z "
       style="fill:#ffffff;fill-rule:evenodd;stroke-width:3.77953;stroke-linecap:round;stroke-linejoin:round;stroke-dashoffset:7.55907"
       id="path117" />
    <path
       transform="scale(0.26458333)"
       d="M 443.29102 870.24219 L 522.69531 1177.1426 L 1565.7148 1177.1426 L 1565.7148 1069.4414 L 443.29102 870.24219 z "
       style="fill:#501616;fill-rule:evenodd;stroke-width:3.77953;stroke-linecap:round;stroke-linejoin:round;stroke-dashoffset:7.55907"
       id="path127" />
    <path
       transform="scale(0.26458333)"
       d="M -110.87305 771.89453 L -569.14062 1177.1426 L 478.42578 1177.1426 L 396.89062 862.00781 L -110.87305 771.89453 z "
       style="fill:#ff00ff;fill-rule:evenodd;stroke-width:3.77953;stroke-linecap:round;stroke-linejoin:round;stroke-dashoffset:7.55907"
       id="path140" />
    <path
       transform="scale(0.26458333)"
       d="M 1565.7148 86.195312 L 1249.8379 962.63477 L 1270.748 973.56445 L 1565.7148 1025.9141 L 1565.7148 86.195312 z "
       style="fill:#ff7f2a;fill-rule:evenodd;stroke-width:3.77953;stroke-linecap:round;stroke-linejoin:round;stroke-dashoffset:7.55907"
       id="path123" />
    <path
       transform="scale(0.26458333)"
       d="M 1293.2148 14.285156 L 836.89453 746.77344 L 1211.5039 942.5957 L 1546.0762 14.285156 L 1293.2148 14.285156 z "
       style="fill:#000080;fill-rule:evenodd;stroke-width:3.77953;stroke-linecap:round;stroke-linejoin:round;stroke-dashoffset:7.55907"
       id="path130" />
    <path
       transform="scale(0.26458333)"
       d="M 745.85742 14.285156 L 259.09375 444.73242 L 798.80469 726.86133 L 1242.7207 14.285156 L 745.85742 14.285156 z "
       style="fill:#280b0b;fill-rule:evenodd;stroke-width:3.77953;stroke-linecap:round;stroke-linejoin:round;stroke-dashoffset:7.55907"
       id="path135" />
    <path
       transform="scale(0.26458333)"
       d="M -564.34961 14.285156 L 218.43359 423.47656 L 681.16211 14.285156 L -564.34961 14.285156 z "
       style="fill:#000080;fill-rule:evenodd;stroke-width:3.77953;stroke-linecap:round;stroke-linejoin:round;stroke-dashoffset:7.55907"
       id="path113" />
  </g>
</svg>
